<svg xmlns="http://www.w3.org/2000/svg" viewBox="0 0 24 24" fill="none">
  <!-- Shield Background -->
  <path d="M12 22s8-4 8-10V5l-8-3-8 3v7c0 6 8 10 8 10z" fill="url(#shield-gradient)" />
  <!-- Shield Edge Highlight -->
  <path d="M12 22s8-4 8-10V5l-8-3-8 3v7c0 6 8 10 8 10z" stroke="#3b82f6" strokeWidth="1.5" strokeLinecap="round" strokeLinejoin="round" />
  <!-- Central AI Synapse Core Node -->
  <circle cx="12" cy="11" r="2.5" fill="#ffffff" />
  <!-- Surrounding Network Nodes -->
  <circle cx="12" cy="6" r="1.5" fill="#60a5fa" />
  <circle cx="8" cy="13" r="1.5" fill="#60a5fa" />
  <circle cx="16" cy="13" r="1.5" fill="#60a5fa" />
  <!-- Connections -->
  <line x1="12" y1="7.5" x2="12" y2="9.5" stroke="#93c5fd" strokeWidth="1" />
  <line x1="9.5" y1="12.5" x2="11" y2="11.5" stroke="#93c5fd" strokeWidth="1" />
  <line x1="14.5" y1="12.5" x2="13" y2="11.5" stroke="#93c5fd" strokeWidth="1" />
  <defs>
    <linearGradient id="shield-gradient" x1="12" y1="2" x2="12" y2="22" gradientUnits="userSpaceOnUse">
      <stop offset="0%" stopColor="#1e40af" />
      <stop offset="100%" stopColor="#1e3a8a" />
    </linearGradient>
  </defs>
</svg>